<?xml version="1.0" encoding="UTF-8" standalone="no"?>
<svg
   xmlns:dc="http://purl.org/dc/elements/1.1/"
   xmlns:cc="http://creativecommons.org/ns#"
   xmlns:rdf="http://www.w3.org/1999/02/22-rdf-syntax-ns#"
   xmlns:svg="http://www.w3.org/2000/svg"
   xmlns="http://www.w3.org/2000/svg"
   xmlns:sodipodi="http://sodipodi.sourceforge.net/DTD/sodipodi-0.dtd"
   xmlns:inkscape="http://www.inkscape.org/namespaces/inkscape"
   id="fix_1"
   enable-background="new 0 0 24 24"
   height="512"
   viewBox="0 0 24 24"
   width="512"
   version="1.1"
   sodipodi:docname="card__diamond.svg"
   inkscape:version="0.92.4 (5da689c313, 2019-01-14)">
  <metadata
     id="metadata7456">
    <rdf:RDF>
      <cc:Work
         rdf:about="">
        <dc:format>image/svg+xml</dc:format>
        <dc:type
           rdf:resource="http://purl.org/dc/dcmitype/StillImage" />
        <dc:title></dc:title>
      </cc:Work>
    </rdf:RDF>
  </metadata>
  <defs
     id="defs7454" />
  <sodipodi:namedview
     pagecolor="#ffffff"
     bordercolor="#666666"
     borderopacity="1"
     objecttolerance="10"
     gridtolerance="10"
     guidetolerance="10"
     inkscape:pageopacity="0"
     inkscape:pageshadow="2"
     inkscape:window-width="1680"
     inkscape:window-height="987"
     id="namedview7452"
     showgrid="false"
     inkscape:zoom="0.4609375"
     inkscape:cx="-79.186441"
     inkscape:cy="256"
     inkscape:window-x="-8"
     inkscape:window-y="-8"
     inkscape:window-maximized="1"
     inkscape:current-layer="fix_1" />
  <path
     d="m12 23c-.147 0-.287-.065-.383-.178l-11.5-13.659c-.133-.158-.155-.382-.056-.562l4.032-7.341c.088-.16.256-.26.438-.26h14.938c.183 0 .351.1.438.26l4.031 7.341c.1.181.077.404-.056.562l-11.5 13.659c-.095.113-.235.178-.382.178zm-10.896-14.219 10.896 12.943 10.896-12.943-3.723-6.781h-14.346z"
     id="path7443"
     style="fill:#715a52;fill-opacity:1" />
  <path
     d="m23.25 9.5h-22.5c-.276 0-.5-.224-.5-.5s.224-.5.5-.5h22.5c.276 0 .5.224.5.5s-.224.5-.5.5z"
     id="path7445"
     style="fill:#715a52;fill-opacity:1" />
  <path
     d="m17.062 9.219c-.157 0-.312-.074-.409-.213l-4.651-6.633-4.592 6.598c-.156.227-.469.282-.695.125-.228-.158-.283-.469-.125-.696l5-7.186c.093-.134.246-.214.409-.214h.001c.163 0 .315.079.409.213l5.062 7.219c.159.227.104.538-.122.696-.086.061-.187.091-.287.091z"
     id="path7447"
     style="fill:#715a52;fill-opacity:1" />
  <path
     d="m12 23c-.212 0-.4-.133-.471-.332l-7.469-21c-.092-.261.044-.547.303-.639.262-.096.547.043.639.303l6.998 19.676 6.998-19.676c.092-.259.377-.397.639-.303.26.092.396.378.303.639l-7.469 21c-.071.199-.259.332-.471.332z"
     id="path7449"
     style="fill:#715a52;fill-opacity:1" />
</svg>
