<?xml version="1.0" encoding="UTF-8" standalone="no"?>
<svg
   xmlns:dc="http://purl.org/dc/elements/1.1/"
   xmlns:cc="http://creativecommons.org/ns#"
   xmlns:rdf="http://www.w3.org/1999/02/22-rdf-syntax-ns#"
   xmlns:svg="http://www.w3.org/2000/svg"
   xmlns="http://www.w3.org/2000/svg"
   xmlns:sodipodi="http://sodipodi.sourceforge.net/DTD/sodipodi-0.dtd"
   xmlns:inkscape="http://www.inkscape.org/namespaces/inkscape"
   id="Layer_1"
   enable-background="new 0 0 496.058 496.058"
   height="512"
   viewBox="0 0 496.058 496.058"
   width="512"
   version="1.1"
   sodipodi:docname="card__coin.svg"
   inkscape:version="0.92.4 (5da689c313, 2019-01-14)">
  <metadata
     id="metadata8124">
    <rdf:RDF>
      <cc:Work
         rdf:about="">
        <dc:format>image/svg+xml</dc:format>
        <dc:type
           rdf:resource="http://purl.org/dc/dcmitype/StillImage" />
        <dc:title></dc:title>
      </cc:Work>
    </rdf:RDF>
  </metadata>
  <defs
     id="defs8122" />
  <sodipodi:namedview
     pagecolor="#ffffff"
     bordercolor="#666666"
     borderopacity="1"
     objecttolerance="10"
     gridtolerance="10"
     guidetolerance="10"
     inkscape:pageopacity="0"
     inkscape:pageshadow="2"
     inkscape:window-width="1680"
     inkscape:window-height="987"
     id="namedview8120"
     showgrid="false"
     inkscape:zoom="0.4609375"
     inkscape:cx="-79.186441"
     inkscape:cy="256"
     inkscape:window-x="-8"
     inkscape:window-y="-8"
     inkscape:window-maximized="1"
     inkscape:current-layer="Layer_1" />
  <path
     d="m232 214.949c0 6.363 4.042 12.031 10.057 14.105l22.318 7.696c18.916 6.523 31.625 24.349 31.625 44.358 0 20.656-13.423 38.225-32 44.474v14.899c0 8.837-7.164 16-16 16s-16-7.163-16-16v-14.899c-18.577-6.249-32-23.818-32-44.474 0-8.836 7.164-16 16-16s16 7.164 16 16c0 8.227 6.693 14.92 14.92 14.92h2.159c8.227 0 14.92-6.693 14.92-14.92 0-6.363-4.042-12.031-10.057-14.105l-22.318-7.696c-18.915-6.523-31.624-24.349-31.624-44.358 0-20.656 13.423-38.225 32-44.474v-14.899c0-8.837 7.164-16 16-16s16 7.163 16 16v14.899c18.577 6.249 32 23.818 32 44.474 0 8.836-7.164 16-16 16s-16-7.164-16-16c0-8.227-6.693-14.92-14.92-14.92h-2.159c-8.228 0-14.921 6.693-14.921 14.92zm191.362 208.442c-46.841 46.841-109.119 72.638-175.362 72.638-137.069 0-248-110.919-248-248 0-137.069 110.919-248 248-248 66.243 0 128.521 25.796 175.362 72.637 96.923 96.922 96.932 253.794 0 350.725zm40.638-175.362c0-119.103-96.897-216-216-216s-216 96.897-216 216 96.897 216 216 216 216-96.897 216-216zm-16 0c0 110.28-89.72 200-200 200s-200-89.72-200-200 89.72-200 200-200 200 89.72 200 200zm-32 0c0-92.635-75.364-168-168-168s-168 75.365-168 168 75.364 168 168 168 168-75.365 168-168z"
     id="path8117"
     style="fill:#715a52;fill-opacity:1" />
</svg>
