<?xml version="1.0" encoding="UTF-8" standalone="no"?>
<svg
   xmlns:dc="http://purl.org/dc/elements/1.1/"
   xmlns:cc="http://creativecommons.org/ns#"
   xmlns:rdf="http://www.w3.org/1999/02/22-rdf-syntax-ns#"
   xmlns:svg="http://www.w3.org/2000/svg"
   xmlns="http://www.w3.org/2000/svg"
   xmlns:sodipodi="http://sodipodi.sourceforge.net/DTD/sodipodi-0.dtd"
   xmlns:inkscape="http://www.inkscape.org/namespaces/inkscape"
   id="Capa_1"
   enable-background="new 0 0 443.294 443.294"
   height="512"
   viewBox="0 0 443.294 443.294"
   width="512"
   version="1.1"
   sodipodi:docname="info-bar__time.svg"
   inkscape:version="0.92.4 (5da689c313, 2019-01-14)">
  <metadata
     id="metadata6880">
    <rdf:RDF>
      <cc:Work
         rdf:about="">
        <dc:format>image/svg+xml</dc:format>
        <dc:type
           rdf:resource="http://purl.org/dc/dcmitype/StillImage" />
        <dc:title></dc:title>
      </cc:Work>
    </rdf:RDF>
  </metadata>
  <defs
     id="defs6878" />
  <sodipodi:namedview
     pagecolor="#ffffff"
     bordercolor="#666666"
     borderopacity="1"
     objecttolerance="10"
     gridtolerance="10"
     guidetolerance="10"
     inkscape:pageopacity="0"
     inkscape:pageshadow="2"
     inkscape:window-width="1680"
     inkscape:window-height="987"
     id="namedview6876"
     showgrid="false"
     inkscape:zoom="0.4609375"
     inkscape:cx="-79.186441"
     inkscape:cy="256"
     inkscape:window-x="-8"
     inkscape:window-y="-8"
     inkscape:window-maximized="1"
     inkscape:current-layer="Capa_1" />
  <path
     d="m235.499 138.529h-27.706v88.854l45.563 45.563 19.589-19.589-37.446-37.446z"
     id="path6871"
     style="fill:#e7e5d8;fill-opacity:1" />
  <path
     d="m342.54 107.895-24.342-97.397c-1.542-6.169-7.075-10.498-13.433-10.498h-166.236c-6.358 0-11.891 4.329-13.434 10.498l-24.342 97.397c-28.027 29.769-45.342 69.733-45.342 113.752s17.314 83.983 45.342 113.752l24.342 97.397c1.542 6.169 7.075 10.498 13.434 10.498h166.235c6.358 0 11.891-4.329 13.434-10.498l24.342-97.397c28.027-29.769 45.342-69.733 45.342-113.752s-17.314-83.984-45.342-113.752zm-193.188-80.189h144.59l12.864 51.438c-24.944-14.964-54.012-23.732-85.159-23.732s-60.214 8.768-85.159 23.732c0 0 12.864-51.438 12.864-51.438zm144.59 387.882h-144.59l-12.864-51.438c24.944 14.964 54.011 23.732 85.159 23.732s60.214-8.768 85.159-23.732c0 0-12.864 51.438-12.864 51.438zm-72.295-55.412c-76.381 0-138.529-62.149-138.529-138.529s62.148-138.529 138.529-138.529 138.529 62.149 138.529 138.529-62.149 138.529-138.529 138.529z"
     id="path6873"
     style="fill:#e7e5d8;fill-opacity:1" />
</svg>
